<svg width="25" height="18" viewBox="0 0 25 18" fill="none" xmlns="http://www.w3.org/2000/svg">
<path d="M0.882813 12.8C0.882813 8.96667 1.09948 6.21667 1.53281 4.55C1.99948 2.85 2.91615 1.68333 4.28281 1.05C5.68281 0.416666 7.96615 0.0999993 11.1328 0.0999993V5.95C9.43281 5.95 8.31615 5.98333 7.78281 6.05C7.24948 6.11667 6.89948 6.31667 6.73281 6.65C6.56615 6.98333 6.48281 7.61666 6.48281 8.55H11.1328V17.9H0.882813V12.8ZM13.8828 12.8C13.8828 8.96667 14.0995 6.21667 14.5328 4.55C14.9995 2.85 15.9161 1.68333 17.2828 1.05C18.6828 0.416666 20.9661 0.0999993 24.1328 0.0999993V5.95C22.4328 5.95 21.3161 5.98333 20.7828 6.05C20.2495 6.11667 19.8995 6.31667 19.7328 6.65C19.5661 6.98333 19.4828 7.61666 19.4828 8.55H24.1328V17.9H13.8828V12.8Z" fill="#DF611E"/>
</svg>
